# xmcd CD database file
#
# Track frame offsets:
#	150
#	32125
#	43132
#	67854
#	97801
#	109918
#	129300
#	149147
#	169871
#	211385
#	240454
#	268857
#	288682
#	320044
#
# Disc length: 4358 seconds
#
# Revision: 0
# Processed by: cddbd v1.5.2PL0 Copyright (c) Steve Scherf et al.
# Submitted via: CDex 1.51
#
DISCID=d911040e
DTITLE=The Spacy World of Klenze17 - Volume 11
DYEAR=1900
DGENRE=Jazz
TTITLE0=Surfer Rose (spokenman)
TTITLE1=Brazilian Beats (jaqo donato cala boca)
TTITLE2=Globe Grooves (dubrovniks)
TTITLE3=Rue Martel (stereo action unlimited*brasil)
TTITLE4=Don Air (besame mucho)
TTITLE5=DJ Q (optimum thinking)
TTITLE6=Weird Uncle Betty (the intruder)
TTITLE7=Surfer Rose (disco dub band)
TTITLE8=Laurent Garnier (the man with the red face)
TTITLE9=Deeper Rhythms (jack it up)
TTITLE10=Mental Blax (next stop the tech-star)
TTITLE11=Surfer Rose (fixed in my heard)
TTITLE12=Rue Martel (stereo action unlimited *rico)
TTITLE13=Weird Uncle Betty (sexorama)
EXTD=
EXTT0=
EXTT1=
EXTT2=
EXTT3=
EXTT4=
EXTT5=
EXTT6=
EXTT7=
EXTT8=
EXTT9=
EXTT10=
EXTT11=
EXTT12=
EXTT13=
PLAYORDER=
